# xmcd
#
# Track frame offsets:
#	150
#	13659
#	23322
#	36034
#	48344
#	63332
#	75705
#	90231
#	101987
#	111930
#	126211
#	141950
#	156750
#	168807
#	184834
#	202205
#	216545
#	228071
#	242717
#	256785
#	270786
#	284281
#	301634
#	312763
#
# Disc length: 4386
#
# Revision: 1
# Processed by: cddbd v1.5.1PL0 Copyright (c) Steve Scherf et al.
# Submitted via: dBpowerAMP V4.0
# Normalized: r0:TDELIM( - )
#
DISCID=38112018
DTITLE=Various Artist - L'Italiane D'Oro
DYEAR=1900
DGENRE=Oldies
TTITLE0=Se Piangi, Se Ridi - Bobby Solo
TTITLE1=Al Di La - Emilio Pericoli
TTITLE2=Il Mondo - Sergio Endrigo
TTITLE3=Come Te Non C'è Nessuno - Rita Pavone
TTITLE4=Dio Come Ti Amo - Gigliola Cinquetti
TTITLE5=Zingara - Bobby Solo
TTITLE6=C'era Un Ragazzo Che Come Me Amava i Beatles e i Rolling Stones - Giro In Italia
TTITLE7=Volarre - Rita Pavone
TTITLE8=Il Giramondo - Giro In Italia
TTITLE9=Una Lacrima Sul Viso - Bobby Solo
TTITLE10=Canzone Per Te - Sergio Endrigo
TTITLE11=Non Ho L'Eta - Gigliola Cinquetti
TTITLE12=Sul Cocuzzolo Della Montagna - Rita Pavone
TTITLE13=Parlami D'Amore Mariu - Helmut Lotti and C. Aznavour
TTITLE14=Champagne - Pepino Di Capri
TTITLE15=Teresa - Sergio Endrigo
TTITLE16=Arrivederci Roma - Rita Pavone
TTITLE17=Roberta - Pepino Di Capri
TTITLE18=Canzone Per Te - Roberto Carlos
TTITLE19=Parlami D'Amore Mariu - Pepino Di Capri
TTITLE20=Datemi Un Martello - Rita Pavone
TTITLE21=Io Che Amo Solo Te - Sergio Endrigo
TTITLE22=Che M'Importa Del Mondo - Rita Pavone
TTITLE23=Lontano Dagli Occhi - Sergio Endrigo
EXTD=
EXTT0=
EXTT1=
EXTT2=
EXTT3=
EXTT4=
EXTT5=
EXTT6=
EXTT7=
EXTT8=
EXTT9=
EXTT10=
EXTT11=
EXTT12=
EXTT13=
EXTT14=
EXTT15=
EXTT16=
EXTT17=
EXTT18=
EXTT19=
EXTT20=
EXTT21=
EXTT22=
EXTT23=
PLAYORDER=
